<svg xmlns="http://www.w3.org/2000/svg" aria-hidden="true" style="position:absolute;width:0;height:0;overflow:hidden">
  <defs>
    <symbol id="icon-coin-euro" viewBox="0 0 32 32">
      <path d="M15 2C6.716 2 0 8.716 0 17s6.716 15 15 15c8.284 0 15-6.716 15-15S23.284 2 15 2zm0 27C8.373 29 3 23.627 3 17S8.373 5 15 5s12 5.373 12 12-5.373 12-12 12z"/>
      <path d="M20.963 20.136a1 1 0 0 0-1.367.362A3.018 3.018 0 0 1 17 22.001h-4a3.004 3.004 0 0 1-2.828-2H15a1 1 0 0 0 0-2h-5v-2h5a1 1 0 0 0 0-2h-4.828a3.004 3.004 0 0 1 2.828-2h4c1.062 0 2.057.576 2.596 1.503a1 1 0 0 0 1.728-1.006 5.025 5.025 0 0 0-4.325-2.497h-4a5.007 5.007 0 0 0-4.899 4H6.999a1 1 0 0 0 0 2h1v2h-1a1 1 0 0 0 0 2H8.1a5.01 5.01 0 0 0 4.899 4h4a5.025 5.025 0 0 0 4.325-2.497.999.999 0 0 0-.362-1.367z"/>
    </symbol>
    <symbol id="icon-user" viewBox="0 0 32 32">
      <path d="M18 22.082v-1.649c2.203-1.241 4-4.337 4-7.432 0-4.971 0-9-6-9s-6 4.029-6 9c0 3.096 1.797 6.191 4 7.432v1.649C7.216 22.637 2 25.97 2 30h28c0-4.03-5.216-7.364-12-7.918z"/>
    </symbol>
    <symbol id="icon-bin2" viewBox="0 0 32 32">
      <path d="M6 32h20l2-22H4zM20 4V0h-8v4H2v6l2-2h24l2 2V4H20zm-2 0h-4V2h4v2z"/>
    </symbol>
    <symbol id="icon-heart" viewBox="0 0 32 32">
      <path d="M23.6 2c-3.363 0-6.258 2.736-7.599 5.594C14.659 4.736 11.764 2 8.4 2 3.763 2 0 5.764 0 10.401c0 9.433 9.516 11.906 16.001 21.232C22.131 22.365 32 19.533 32 10.401 32 5.764 28.237 2 23.6 2z"/>
    </symbol>
    <symbol id="icon-question" viewBox="0 0 32 32">
      <path d="M14 22h4v4h-4zm8-14a2 2 0 0 1 2 2v6l-6 4h-4v-2l6-4v-2H10V8h12zm-6-5c-3.472 0-6.737 1.352-9.192 3.808S3 12.528 3 16c0 3.472 1.352 6.737 3.808 9.192S12.528 29 16 29c3.472 0 6.737-1.352 9.192-3.808S29 19.472 29 16c0-3.472-1.352-6.737-3.808-9.192S19.472 3 16 3zm0-3c8.837 0 16 7.163 16 16s-7.163 16-16 16S0 24.837 0 16 7.163 0 16 0z"/>
    </symbol>
  </defs>
</svg>
